<?xml version="1.0" encoding="UTF-8" standalone="no"?>
<svg
   xmlns:dc="http://purl.org/dc/elements/1.1/"
   xmlns:cc="http://creativecommons.org/ns#"
   xmlns:rdf="http://www.w3.org/1999/02/22-rdf-syntax-ns#"
   xmlns:svg="http://www.w3.org/2000/svg"
   xmlns="http://www.w3.org/2000/svg"
   viewBox="0 0 2625 2625"
   height="2625"
   width="2625"
   xml:space="preserve"
   version="1.1"
   id="svg2"><metadata
     id="metadata8"><rdf:RDF><cc:Work
         rdf:about=""><dc:format>image/svg+xml</dc:format><dc:type
           rdf:resource="http://purl.org/dc/dcmitype/StillImage" /><dc:title></dc:title></cc:Work></rdf:RDF></metadata><defs
     id="defs6"><clipPath
       id="clipPath16"
       clipPathUnits="userSpaceOnUse"><path
         id="path18"
         d="m 0,2100 2100,0 L 2100,0 0,0 0,2100 Z" /></clipPath><clipPath
       id="clipPath60"
       clipPathUnits="userSpaceOnUse"><path
         id="path62"
         d="m 0,2100 2100,0 L 2100,0 0,0 0,2100 Z" /></clipPath></defs><g
     transform="matrix(1.25,0,0,-1.25,0,2625)"
     id="g10"><g
       id="g12"><g
         clip-path="url(#clipPath16)"
         id="g14"><g
           transform="translate(757.127,608.3721)"
           id="g20"><path
             id="path22"
             style="fill:#ffffff;fill-opacity:1;fill-rule:nonzero;stroke:none"
             d="M 0,0 C -2.968,0.589 -5.958,1.119 -8.96,1.573 -8.968,1.573 -8.976,1.569 -8.983,1.569 -8.995,1.565 -8.999,1.542 -8.987,1.542 -4.48,0.876 0.002,0.034 4.463,-0.932 2.983,-0.608 1.495,-0.297 0,0" /></g><g
           transform="translate(1579.5088,1563.2427)"
           id="g24"><path
             id="path26"
             style="fill:#ffffff;fill-opacity:1;fill-rule:nonzero;stroke:none"
             d="M 0,0 C 0.411,-0.173 0.821,-0.346 1.232,-0.521 0.82,-0.347 0.409,-0.174 0,0 m -196.856,111.321 c 18.278,-11.398 36.292,-23.171 54.225,-35.1 8.702,-5.79 17.379,-11.629 26.046,-17.479 8.588,-5.786 17.106,-11.693 25.857,-17.229 8.73,-5.525 17.924,-10.304 27.185,-14.874 10.479,-5.17 21.219,-9.782 32.058,-14.149 10.947,-4.405 22.006,-8.536 32.898,-13.087 11.499,-4.874 22.81,-10.229 33.709,-16.339 0.01,-0.005 0.025,0.012 0.015,0.021 C 20.343,-1.413 6.582,15.05 -8.3,30.465 c -15.331,15.879 -32.654,29.996 -51.933,40.836 -10.326,5.802 -21.409,10.226 -32.52,14.279 -9.631,3.513 -19.381,6.68 -29.234,9.503 -20.499,5.875 -41.387,10.306 -62.358,14.093 -4.164,0.752 -8.33,1.482 -12.5,2.17 -0.002,-0.001 -0.004,-0.001 -0.005,-0.001 -0.01,-0.003 -0.018,-0.02 -0.006,-0.024" /></g><g
           transform="translate(1783.7822,1379.1958)"
           id="g28"><path
             id="path30"
             style="fill:#ffffff;fill-opacity:1;fill-rule:nonzero;stroke:none"
             d="m 0,0 c 6.468,-10.073 11.965,-20.604 16.624,-31.626 10.375,-25.455 15.763,-52.429 19.334,-79.586 1.487,-12.135 2.662,-24.322 3.758,-36.499 1.238,-13.749 1.723,-27.547 1.711,-41.347 -0.024,-26.77 -2.29,-53.379 -5.871,-79.887 -5.62,-38.872 -14.362,-77.156 -24.397,-115.111 -9.99,-37.798 -22.171,-74.974 -37.08,-111.115 -15.855,-37.241 -34.376,-73.326 -54.693,-108.322 -20.543,-35.379 -43.006,-69.758 -67.679,-102.4 -51.302,-66.294 -111.581,-125.445 -177.555,-177.08 -25.589,-19.693 -51.908,-38.379 -79.585,-55.056 -31.472,-18.968 -64.508,-35.154 -98.352,-49.419 -46.496,-19.093 -94.468,-34.398 -143.105,-47.037 -24.873,-6.46 -49.46,-14.027 -74.07,-21.41 -24.591,-7.374 -49.21,-14.646 -73.818,-21.961 -0.015,0 -0.014,-0.024 0.003,-0.024 34.332,0.481 68.711,1.784 102.903,5 17.833,1.673 35.679,3.884 53.275,7.259 17.064,3.277 34.08,6.806 51.015,10.711 33.725,7.781 67.1,17.063 99.903,28.113 16.39,5.519 32.528,11.686 48.568,18.153 17.519,7.06 34.858,14.639 51.842,22.899 29.268,14.241 57.54,30.314 84.633,48.352 12.027,8.008 23.732,16.478 35.244,25.208 13.27,10.06 26.317,20.399 39.029,31.155 45.313,38.35 86.248,81.749 123.228,128.134 19.905,24.959 39.001,50.649 56.466,77.383 16.207,24.802 30.85,50.636 43.994,77.188 13.886,28.056 25.974,57.082 36.429,86.586 9.536,26.918 17.362,54.433 23.457,82.332 12.079,55.292 20.477,111.609 23.071,168.185 1.338,29.119 1.077,58.427 -1.481,87.472 -1.332,15.163 -3.069,30.417 -6.112,45.339 -2.788,13.658 -7.061,27.069 -12.208,40.01 -6.778,17.049 -15.114,33.327 -25.293,48.599 C 23.602,-25.417 12.432,-12.012 0.021,0.019 0.017,0.021 0.013,0.022 0.008,0.021 0,0.019 -0.006,0.01 0,0" /></g><g
           transform="translate(437.4175,982.9912)"
           id="g32"><path
             id="path34"
             style="fill:#ffffff;fill-opacity:1;fill-rule:nonzero;stroke:none"
             d="M 0,0 C -1.441,-0.337 -2.876,-0.682 -4.306,-1.033 -4.458,-1.222 -4.619,-1.405 -4.789,-1.584 -3.186,-1.062 -1.59,-0.534 0,0" /></g><g
           transform="translate(548.5781,165.2559)"
           id="g36"><path
             id="path38"
             style="fill:#ffffff;fill-opacity:1;fill-rule:nonzero;stroke:none"
             d="m 0,0 c 19.758,2.785 39.004,7.207 55.227,11.164 24.012,5.859 48.246,13.227 74.09,22.527 24.777,8.913 49.961,19.538 74.852,31.581 23.441,11.34 46.543,24.278 68.672,38.454 21.273,13.636 42.695,29.523 63.676,47.214 8.769,7.395 17.613,15.45 27.027,24.629 10.137,9.879 18,18.297 24.75,26.496 5.742,6.977 10.984,14.516 15.582,22.414 4.375,7.528 8.262,15.93 12.594,27.254 2.843,7.454 5.187,15.625 7.164,24.981 0.98,4.621 1.617,9.32 2.23,13.859 l 0.133,0.977 c 0.652,4.769 1.02,9.777 1.094,14.89 0.097,7.071 -0.84,14.164 -1.871,20.774 -0.856,5.515 -2.395,11.324 -4.711,17.765 -2.203,6.098 -4.981,11.977 -8.25,17.473 -2.746,4.61 -6.352,9.402 -11.024,14.652 -1.851,2.086 -3.871,4.11 -6.004,6.016 -5.832,7.715 -13.019,15.035 -21.355,21.754 -6.793,5.469 -13.77,10.332 -20.727,14.457 -6.843,4.059 -14.414,7.789 -23.824,11.738 -13.445,5.637 -28.441,9.805 -45.844,12.735 -15.73,2.644 -31.308,3.984 -46.304,3.984 -12.942,-0.016 -25.25,-0.992 -36.582,-2.906 l -1.035,-0.176 c 12.058,-1.848 23.847,-4.887 34.789,-7.898 13.218,-3.645 27.066,-8.008 42.324,-13.332 16.348,-5.7 32.457,-12.059 44.664,-16.961 3.535,-1.422 7.082,-2.848 10.605,-4.313 12.704,-5.383 22.774,-10.238 31.696,-15.285 2.894,-2.664 5.695,-5.395 8.332,-8.121 5.222,-5.406 9.761,-10.594 13.867,-15.867 1.855,-2.418 3.676,-4.946 5.41,-7.512 1.59,-5.34 2.797,-10.91 3.688,-17.027 1.336,-12.848 1.058,-26.489 -0.856,-41.696 -1.98,-12.336 -5.363,-24.582 -10.055,-36.39 -4.836,-10.996 -10.711,-21.246 -17.461,-30.469 -7.792,-9.711 -16.769,-18.383 -26.046,-27.145 -9.844,-9.296 -20.575,-18.492 -32.813,-28.117 C 264.466,141.526 214.86,113.401 156.047,88.589 114.219,71.418 68.887,56.551 21.321,44.395 7.09,40.758 -5.882,37.938 -18.343,35.773 c -9.969,-1.734 -20.676,-3.32 -34.719,-5.144 -19.711,-2.461 -45.734,-5.453 -72.234,-6.754 -9.008,-0.441 -17.317,-0.66 -25.403,-0.66 -4.441,0 -8.859,0.07 -13.129,0.207 -11.328,0.363 -23.398,1.418 -36.898,3.219 -24.281,3.515 -45.313,8.992 -64.305,16.738 -12.527,5.398 -23.023,11.297 -32.082,18.039 -6.09,4.832 -11.234,9.871 -15.738,15.398 -3.621,4.875 -6.66,10.043 -9.035,15.364 -2.114,5.433 -3.633,11.211 -4.524,17.172 -0.73,7.285 -0.617,14.652 0.352,22.519 1.691,10.57 4.766,20.856 8.035,31.34 3.508,11.266 7.82,23.031 13.184,35.965 9.054,21.238 19.652,42.14 31.504,62.121 11.093,18.707 23.781,37.422 38.796,57.211 37.758,48.941 83.825,94.355 140.825,138.847 75.398,58.058 165.136,109.039 266.727,151.531 20.183,8.343 38.359,15.519 55.57,21.941 17.82,6.652 36.914,13.363 58.379,20.516 37.644,12.535 76.309,24.043 114.918,34.203 34.719,9.133 71.398,17.68 109.012,25.402 16.574,3.406 33.484,6.61 49.836,9.711 l 0.996,0.188 c 5.195,0.988 10.398,1.972 15.593,2.968 24.512,4.688 50.801,9.805 76.993,15.461 58.925,12.707 105.628,25.981 146.968,41.766 11.895,4.539 23.942,9.59 35.809,15.008 10.516,4.804 21.836,10.605 34.605,17.726 21.606,12.051 43.219,26.485 64.231,42.903 19.828,15.48 39.058,33.254 57.156,52.824 19.063,20.606 36.172,43.52 50.391,63.215 30.945,42.851 58.57,86.453 82.097,129.59 27.25,49.977 48.321,97.219 64.414,144.422 17.114,50.203 27.946,101.738 32.192,153.168 2.105,25.488 2.219,51.051 0.336,75.988 -1.93,25.614 -6.113,52.418 -12.793,81.942 -5.91,26.125 -13.813,52.535 -24.16,80.746 -6.133,16.726 -11.352,29.371 -16.926,41 -2.859,5.965 -6.184,12.195 -9.883,18.511 -2.851,5.356 -6.008,10.879 -9.379,16.411 -3.433,5.636 -7.137,11.402 -11.328,17.621 -6.602,9.816 -13.617,19.59 -20.398,29.043 l -0.262,0.367 -0.078,0.109 -3.406,4.746 -0.637,0.891 -0.367,0.516 c -1.692,2.355 -3.379,4.711 -5.051,7.078 l -1.938,2.742 -0.527,0.754 -0.598,0.847 c -0.754,1.071 -1.504,2.137 -2.257,3.2 -3.192,4.496 -7.043,9.754 -11.399,14.66 -0.867,0.98 -1.75,1.937 -2.629,2.844 -0.89,1.128 -1.824,2.07 -2.847,2.886 l -0.458,0.352 -0.445,0.406 c -0.976,0.889 -2.031,1.784 -3.139,2.669 l -0.228,0.089 c -0.899,0.579 -1.812,1.038 -2.777,1.451 0.28,-0.199 0.567,-0.406 0.863,-0.623 -0.828,0.508 -1.793,0.898 -2.867,1.176 -1.106,0.285 -2.246,0.426 -3.391,0.426 -3.723,0 -7.379,-1.543 -10.027,-4.235 -1.211,-1.226 -2.395,-2.609 -3.348,-3.722 l -0.293,-0.34 c -0.676,-0.785 -1.351,-1.567 -2.051,-2.328 -1.351,-1.473 -2.855,-2.813 -4.312,-4.11 -0.563,-0.5 -1.051,-0.937 -1.535,-1.375 -3.996,-3.64 -8,-7.265 -12.016,-10.883 -8.16,-7.359 -16.68,-14.875 -24.027,-21.343 -4.516,-3.985 -8.274,-7.258 -11.824,-10.301 -3.083,-2.168 -6.36,-4.445 -9.739,-6.766 -11.226,-7.707 -23.445,-15.801 -32.363,-21.711 l -0.801,-0.535 c -3.301,-2.183 -6.597,-4.371 -9.89,-6.562 -4.254,-2.828 -8.075,-5.379 -11.622,-7.766 -7.808,-4.066 -13.781,-7.117 -19.363,-9.887 -11.683,-5.804 -23.949,-11.414 -36.457,-16.668 -19.277,-7.929 -39.387,-15.363 -61.473,-22.734 -22.089,-7.371 -43.835,-15.754 -64.214,-23.707 -23.043,-8.984 -46.258,-18.641 -68.703,-27.981 l -0.473,-0.195 -7.192,-2.996 c -1.332,-0.555 -2.683,-1.113 -4.039,-1.668 4.813,0.324 9.614,0.692 14.418,1.063 16.207,1.242 32.969,2.527 49.567,4.425 26.058,2.989 48.703,6.754 69.226,11.512 12.25,2.84 24.039,6.406 32.942,9.195 10.761,3.372 21.672,7.032 32.429,10.883 23.219,8.305 45.727,17.629 66.895,27.711 11.203,5.336 20.906,10.586 29.656,16.051 5.137,3.207 10.426,6.785 15.719,10.629 l 0.113,0.066 c 0.68,0.426 1.36,0.848 2.039,1.274 8.778,5.48 16.34,10.566 23.129,15.547 3.805,2.328 6.867,4.3 9.641,6.218 4.336,2.985 8.808,6.11 13.297,9.289 6.609,4.676 13.047,9.59 19.273,14.344 l 0.16,0.121 1.66,1.27 c 1.614,1.23 3.231,2.461 4.852,3.687 1.641,1.242 3.293,2.469 4.945,3.696 2.676,1.984 5.082,3.777 7.407,5.578 1.644,-2.723 3.05,-5.051 4.398,-7.332 2.988,-5.059 6.008,-10.465 9.23,-16.528 4.786,-8.992 9.329,-18.109 13.719,-26.922 l 0.18,-0.359 c 1.078,-2.164 2.156,-4.328 3.234,-6.48 3.004,-6 6.586,-13.102 10.407,-20.27 4.73,-12.562 9.16,-23.832 13.535,-34.441 10.781,-26.114 20.355,-54.137 28.461,-83.293 7.535,-27.09 13.07,-53.391 16.457,-78.168 2.504,-21.352 3.668,-42.942 3.461,-64.168 -0.211,-21.18 -1.852,-42.949 -5.016,-66.551 -8.313,-56.148 -24.852,-114.566 -49.16,-173.621 -14.953,-35.223 -32.371,-69.949 -51.774,-103.215 -18.929,-32.477 -40.644,-64.946 -64.535,-96.504 -10.832,-14.051 -22.758,-27.723 -35.449,-40.637 -11.977,-12.179 -25.086,-23.832 -40.078,-35.617 -17.891,-13.621 -37.09,-26.227 -57.067,-37.465 -17.949,-10.094 -37.66,-19.582 -62.035,-29.863 -22.8,-9.348 -45.808,-17.704 -68.379,-24.832 -22.015,-6.946 -45.496,-13.383 -73.894,-20.258 -42.067,-10.192 -85.27,-18.52 -127.051,-26.578 -8.301,-1.598 -16.551,-3.192 -24.797,-4.793 C 447.989,741.839 373.763,721.519 298.032,695.21 260.677,682.245 222.149,667.241 180.235,649.347 142.993,633.448 104.7,615.175 66.411,595.034 -12.546,553.515 -82.625,506.922 -141.875,456.555 c -30.746,-26.133 -59.187,-54.602 -84.535,-84.621 -26.058,-30.856 -48.468,-63.348 -66.605,-96.575 -17.945,-32.871 -32.711,-68.855 -43.883,-106.945 -4.508,-15.379 -8.906,-31.805 -8.871,-48.625 0.016,-6.012 0.781,-12.594 2.281,-19.559 1.254,-5.812 3.391,-11.796 6.731,-18.839 4.918,-10.364 12.652,-20.188 22.984,-29.207 9.461,-8.262 20.719,-15.352 34.41,-21.68 12.383,-5.715 26.008,-10.477 42.879,-14.981 14.192,-3.789 29.395,-6.906 47.844,-9.812 15.433,-2.441 32.113,-4.633 50.988,-6.699 16.762,-1.828 33.5,-3.067 49.742,-3.688 5.953,-0.222 11.938,-0.336 17.793,-0.336 22.907,0 46.496,1.688 70.117,5.012" /></g><g
           transform="translate(1627.1221,1973.061)"
           id="g40"><path
             id="path42"
             style="fill:#ffffff;fill-opacity:1;fill-rule:nonzero;stroke:none"
             d="M 0,0 C 0.001,0 0.001,0 0.001,-0.001 0.005,-0.002 0.009,-0.003 0.012,-0.005 0.008,-0.003 0.004,-0.001 0,0" /></g><g
           transform="translate(938.4712,524.7109)"
           id="g44"><path
             id="path46"
             style="fill:#ffffff;fill-opacity:1;fill-rule:nonzero;stroke:none"
             d="M 0,0 C 0.005,-0.007 0.01,-0.015 0.015,-0.021 0.01,-0.015 0.005,-0.007 0,0 m 11.02,-25.508 c 0.136,0.028 0.214,0.16 0.195,0.293 -0.184,1.317 -0.43,2.621 -0.727,3.918 -0.297,1.285 -0.652,2.551 -1.054,3.805 -0.793,2.48 -1.782,4.89 -2.903,7.234 -2.289,4.781 -5.156,9.262 -8.222,13.578 -4.407,6.207 -9.278,12.071 -13.797,18.196 -0.082,0.109 -0.258,0.105 -0.356,0.023 -0.047,-0.043 -0.078,-0.105 -0.082,-0.172 -0.004,-0.07 0.02,-0.125 0.063,-0.183 2.578,-3.497 5.273,-6.903 7.929,-10.34 2.754,-3.563 5.465,-7.16 7.973,-10.899 -0.007,0.01 -0.016,0.022 -0.024,0.034 1.772,-2.65 3.439,-5.37 4.926,-8.19 1.5,-2.844 2.801,-5.793 3.825,-8.84 -10e-4,0.004 -10e-4,0.007 -0.002,0.01 0.442,-1.331 0.83,-2.68 1.162,-4.045 0.336,-1.394 0.597,-2.805 0.801,-4.223 0.017,-0.121 0.133,-0.203 0.25,-0.203 0.014,0 0.028,0.002 0.043,0.004" /></g><g
           transform="translate(877.3691,570.9609)"
           id="g48"><path
             id="path50"
             style="fill:#ffffff;fill-opacity:1;fill-rule:nonzero;stroke:none"
             d="M 0,0 C -0.162,0.076 -0.323,0.153 -0.484,0.231 -0.323,0.154 -0.161,0.077 0,0 m 77.301,-101.539 c 0.172,12.711 -0.504,25.531 -3.113,37.996 -1.344,6.422 -3.344,12.766 -5.954,18.781 -2.656,6.114 -6.246,11.75 -10.148,17.133 -7.121,9.828 -16.34,18.063 -26.348,24.859 -4.871,3.305 -10.004,6.192 -15.226,8.899 -2.965,1.539 -5.977,2.984 -8.996,4.414 -2.702,1.276 -5.442,2.464 -8.15,3.727 -2.142,1.051 -4.263,2.144 -6.436,3.132 -1.063,0.344 -2.137,0.41 -3.231,0.203 -1.676,-0.332 -3.176,-1.343 -4.109,-2.769 -0.903,-1.387 -1.235,-3.098 -0.918,-4.719 C -15.012,8.516 -14,6.84 -12.559,6.008 -10.5,4.82 -8.32,3.852 -6.16,2.871 c 1.779,-0.809 3.552,-1.63 5.317,-2.469 13.291,-6.455 26.06,-14.013 37.333,-23.616 3.645,-3.22 7.123,-6.61 10.432,-10.177 3.628,-3.907 7.063,-8.003 10.092,-12.388 3.534,-5.445 6.348,-11.345 8.47,-17.472 2.719,-8.452 4.321,-17.194 4.971,-26.042 0.24,-3.944 0.317,-7.889 0.264,-11.84 -0.024,-1.793 1.226,-3.379 3.086,-3.496 0.061,-0.004 0.123,-0.006 0.185,-0.006 1.667,0 3.288,1.359 3.311,3.096" /></g><g
           transform="translate(965.519,488.4873)"
           id="g52"><path
             id="path54"
             style="fill:#ffffff;fill-opacity:1;fill-rule:nonzero;stroke:none"
             d="m 0,0 c 1.715,0.336 3.254,1.375 4.211,2.836 0.242,0.512 0.488,1.019 0.734,1.527 0.352,1.086 0.418,2.188 0.203,3.309 -0.199,2.426 -0.714,4.805 -1.273,7.172 -0.625,2.664 -1.41,5.289 -2.27,7.89 -1.613,4.895 -3.445,9.68 -5.781,14.282 -2.039,4.007 -4.469,7.804 -7.039,11.484 -2.488,3.566 -5.293,6.941 -8.289,10.09 -2.969,3.117 -6.219,5.945 -9.48,8.75 -3.305,2.84 -6.727,5.535 -10.274,8.066 -3.402,2.43 -6.871,4.758 -10.308,7.137 -3.692,2.559 -7.383,5.117 -11.055,7.699 -1.332,0.934 -3.266,0.461 -4.133,-0.867 -0.914,-1.398 -0.465,-3.199 0.867,-4.133 5.222,-3.679 10.346,-7.502 15.196,-11.668 4.751,-4.18 9.347,-8.601 13.648,-13.242 4.448,-4.8 8.547,-10.014 12.244,-15.422 4.535,-6.924 8.246,-14.285 11.016,-22.083 0.823,-2.589 1.513,-5.213 2.123,-7.866 0.746,-3.254 1.203,-6.57 1.988,-9.813 0.418,-1.73 1.32,-3.218 2.836,-4.207 1.065,-0.698 2.322,-1.061 3.586,-1.061 0.418,0 0.837,0.04 1.25,0.12" /></g></g></g><g
       id="g56"><g
         clip-path="url(#clipPath60)"
         id="g58"><g
           transform="translate(463.4717,454.9492)"
           id="g64"><path
             id="path66"
             style="fill:#ffffff;fill-opacity:1;fill-rule:nonzero;stroke:none"
             d="m 0,0 c 0,-3.227 -2.73,-5.957 -5.957,-5.957 -3.227,0 -5.957,2.73 -5.957,5.957 0,3.227 2.73,5.957 5.957,5.957 C -2.73,5.957 0,3.227 0,0 m 12.996,-4.484 c 0,15.324 -12.437,27.765 -27.762,27.765 -15.324,0 -27.761,-12.441 -27.761,-27.765 0,-15.321 12.437,-27.762 27.761,-27.762 15.325,0 27.762,12.441 27.762,27.762" /></g><g
           transform="translate(382.7798,416.8398)"
           id="g68"><path
             id="path70"
             style="fill:#ffffff;fill-opacity:1;fill-rule:nonzero;stroke:none"
             d="m 0,0 c 10.172,4.965 20.348,9.91 30.332,15.242 11.863,6.336 23.891,13.028 34.07,21.887 9.871,8.594 19.106,18.508 25.883,29.762 3.653,6.066 6.793,12.531 8.383,19.468 0,0.008 -0.004,0.02 -0.016,0.016 C 86.977,83.59 75.445,79.711 64.227,75.469 51.523,70.668 38.93,64.672 28.543,55.785 17.742,46.551 8.406,34.824 3.461,21.387 0.953,14.574 -0.332,7.273 -0.02,0.016 c 0,-0.01 0.006,-0.017 0.014,-0.017 C -0.004,-0.001 -0.002,0 0,0" /></g></g></g></g></svg>
